<svg xmlns="http://www.w3.org/2000/svg" fill="none" viewBox="0 0 25 25">
  <g clip-path="url(#X3E2_rjKXRa)">
    <path d="M22.568 10.205a9.332 9.332 0 01-5.607-1.873v8.482c0 4.331-3.337 7.839-7.454 7.839-4.117 0-7.454-3.508-7.454-7.839S5.39 8.975 9.507 8.975c.412 0 .812.036 1.202.104v4.492a3.197 3.197 0 00-1.17-.221c-1.837 0-3.328 1.565-3.328 3.498 0 1.93 1.49 3.498 3.328 3.498 1.834 0 3.324-1.567 3.324-3.498V0h4.158c0 3.238 2.497 5.862 5.576 5.862v4.341l-.029.002" fill="#B0B0B0"/>
  </g>
  <defs>
    <clipPath id="X3E2_rjKXRa">
      <path fill="#fff" d="M0 0h24.653v24.653H0z"/>
    </clipPath>
  </defs>
</svg>
